HIERARCHY
ROOT Hips
{
	OFFSET -0.179506 -22.333345 2.821913
	CHANNELS 6 Xposition Yposition Zposition Zrotation Yrotation Xrotation 
	JOINT LeftUpLeg
	{
		OFFSET 6.951974 -9.140623 -0.681533
		CHANNELS 3 Zrotation Yrotation Xrotation
		JOINT LeftLeg
		{
			OFFSET 3.427654 -37.519855 -0.449580
			CHANNELS 3 Zrotation Yrotation Xrotation
			JOINT LeftFoot
			{
				OFFSET -1.359570 -39.796059 -4.369333
				CHANNELS 3 Zrotation Yrotation Xrotation
				JOINT LeftToe
				{
					OFFSET 2.635814 -5.579078 11.928840
					CHANNELS 3 Zrotation Yrotation Xrotation
					End Site
					{
						OFFSET 0.000000 0.000000 0.000000
					}
				}
			}
		}
	}
	JOINT RightUpLeg
	{
		OFFSET -6.767048 -9.052170 -0.431982
		CHANNELS 3 Zrotation Yrotation Xrotation
		JOINT RightLeg
		{
			OFFSET -3.829005 -38.256897 -0.885003
			CHANNELS 3 Zrotation Yrotation Xrotation
			JOINT RightFoot
			{
				OFFSET 1.577377 -39.841461 -4.231180
				CHANNELS 3 Zrotation Yrotation Xrotation
				JOINT RightToe
				{
					OFFSET -2.537174 -4.814398 12.334795
					CHANNELS 3 Zrotation Yrotation Xrotation
					End Site
					{
						OFFSET 0.000000 0.000000 0.000000
					}
				}
			}
		}
	}
	JOINT Spine
	{
		OFFSET -0.253288 10.896323 -2.669631
		CHANNELS 3 Zrotation Yrotation Xrotation
		JOINT Spine1
		{
			OFFSET 0.548704 13.518043 0.109247
			CHANNELS 3 Zrotation Yrotation Xrotation
			JOINT Spine2
			{
				OFFSET 0.145701 5.292222 2.542457
				CHANNELS 3 Zrotation Yrotation Xrotation
				JOINT Neck
				{
					OFFSET -0.277840 21.387037 -4.285703
					CHANNELS 3 Zrotation Yrotation Xrotation
					JOINT Head
					{
						OFFSET 0.515184 6.496960 5.134897
						CHANNELS 3 Zrotation Yrotation Xrotation
						End Site
						{
							OFFSET 0.000000 0.000000 0.000000
						}
					}
				}
				JOINT LeftShoulder
				{
					OFFSET 7.884473 12.174932 -3.408961
					CHANNELS 3 Zrotation Yrotation Xrotation
					JOINT LeftArm
					{
						OFFSET 9.097692 3.046888 -0.886815
						CHANNELS 3 Zrotation Yrotation Xrotation
						JOINT LeftForeArm
						{
							OFFSET 25.961220 -1.277207 -2.745643
							CHANNELS 3 Zrotation Yrotation Xrotation
							JOINT LeftHand
							{
								OFFSET 24.923361 0.898606 -0.117091
								CHANNELS 3 Zrotation Yrotation Xrotation
								End Site
								{
									OFFSET 0.000000 0.000000 0.000000
								}
							}
						}
					}
				}
				JOINT RightShoulder
				{
					OFFSET -8.175920 11.883285 -3.861528
					CHANNELS 3 Zrotation Yrotation Xrotation
					JOINT RightArm
					{
						OFFSET -9.601238 3.255117 -0.914307
						CHANNELS 3 Zrotation Yrotation Xrotation
						JOINT RightForeArm
						{
							OFFSET -25.374195 -1.332924 -2.140099
							CHANNELS 3 Zrotation Yrotation Xrotation
							JOINT RightHand
							{
								OFFSET -25.529810 0.777228 -0.555919
								CHANNELS 3 Zrotation Yrotation Xrotation
								End Site
								{
									OFFSET 0.000000 0.000000 0.000000
								}
							}
						}
					}
				}
			}
		}
	}
}
MOTION
Frames: 13
Frame Time: 0.033333
-103.696350 64.453178 87.326675 -87.980716 -8.787828 92.136970 14.089076 9.586774 -19.561024 -5.621604 11.971936 31.357057 -2.567777 4.276676 -17.861392 nan nan nan -30.898846 -17.226804 -26.689139 0.289492 -10.071879 33.480750 8.500132 2.550598 -7.354061 nan nan nan 9.446198 0.960210 13.464588 1.099086 -0.099380 7.388155 -1.972426 3.297675 -2.674246 2.447030 1.028822 19.919492 -0.416817 1.005662 11.342972 -14.249345 -9.704307 -6.843643 -66.725439 -30.344411 30.485186 139.285226 -59.994354 -114.707416 -2.798136 -22.374166 -19.305637 1.703563 10.820519 -5.178967 29.213815 21.960812 -5.779375 -51.135649 45.237152 -48.607539 15.141325 6.208213 -6.614199 
-103.961807 64.926758 87.448891 -87.560768 -7.758867 92.141321 15.044916 9.481122 -18.859319 -5.510249 11.259868 30.747068 -2.606240 4.191018 -17.657675 nan nan nan -30.592642 -15.582952 -26.882032 0.452462 -11.835512 35.362419 8.679814 2.947051 -7.965862 nan nan nan 9.315586 0.121848 13.400237 1.998058 -0.672018 7.692355 -1.523285 2.508897 -2.897847 2.467849 1.699656 20.921260 -0.489858 0.785210 10.751343 -14.542316 -9.663763 -6.385100 -67.111311 -29.739476 30.493231 139.014926 -58.773934 -113.885451 -2.703488 -23.174399 -19.673541 3.148921 10.971215 -5.111899 31.108911 22.271937 -2.950218 -58.194174 47.479260 -51.732100 14.388198 7.550903 -8.848521 
-104.201042 65.371834 87.545616 -87.403795 -6.875306 92.169880 15.900461 9.579349 -18.054517 -5.348156 10.799633 30.202781 -2.700508 4.080696 -17.541595 nan nan nan -30.152368 -14.134692 -27.245874 0.514903 -12.934055 36.955421 8.676038 3.368796 -8.710330 nan nan nan 8.883425 -0.622617 13.518649 2.760626 -1.121111 7.536013 -1.091856 2.152181 -2.571516 2.639877 2.208411 21.207041 -0.146066 0.215624 10.777378 -14.530544 -9.953234 -5.619144 -67.014231 -29.695385 30.066768 139.443545 -57.933336 -113.029118 -0.866910 -23.824948 -20.619578 4.571521 11.116425 -4.732719 32.821425 22.055567 -1.765026 -64.834468 50.348784 -57.055204 12.823263 8.628585 -12.539156 
-104.402184 65.854935 87.629990 -87.385809 -6.309618 92.328954 16.469712 9.715083 -17.365930 -5.060467 10.780139 29.818799 -2.721616 3.966334 -17.603351 nan nan nan -29.443479 -13.576923 -27.823861 0.452930 -12.776830 38.178398 8.703536 3.991357 -9.463329 nan nan nan 7.943717 -1.115877 13.560935 3.539193 -1.734187 7.587667 -0.651962 1.866253 -2.469745 2.742546 2.722002 21.447707 0.336401 -0.277099 10.753263 -14.275967 -9.988862 -5.029897 -67.102772 -29.943801 29.566702 140.165294 -57.254701 -112.600980 0.291071 -23.661885 -20.139207 6.246755 11.105536 -4.251758 34.102839 22.207181 -1.060365 -71.924737 52.959560 -63.085245 11.519532 9.699381 -12.891858 
-104.687355 66.427711 87.702911 -87.372482 -6.089024 92.548895 16.778860 9.824739 -16.660311 -4.958743 10.751460 29.408081 -2.258724 3.977056 -17.872644 nan nan nan -28.847240 -13.476481 -28.400210 0.337563 -12.147571 39.282713 8.817650 4.727903 -10.105541 nan nan nan 6.607463 -1.461988 13.394043 4.261125 -2.446674 7.823759 -0.287432 1.456232 -2.844827 2.713309 3.157679 22.018267 1.076076 -0.532013 11.366290 -14.262292 -9.542455 -4.495382 -66.957509 -30.321453 29.123413 141.056929 -56.933158 -112.748898 1.494394 -22.777584 -19.866636 8.424168 11.031191 -3.142083 35.254357 22.541336 -0.176938 -80.283668 55.079893 -70.740205 9.056203 10.577655 -12.456457 
-104.969658 67.007278 87.663147 -87.396199 -5.867780 92.686509 17.275452 9.963663 -15.930639 -4.971348 10.923330 29.159926 -1.837078 3.843863 -18.119294 nan nan nan -28.224256 -13.495414 -28.858891 0.265001 -11.670079 40.250546 8.942081 5.411704 -10.567156 nan nan nan 5.306187 -1.636292 12.842063 4.916249 -3.241539 8.687127 -0.082252 1.242492 -3.071259 3.169810 3.454340 21.897128 1.481948 -1.072860 12.389100 -14.030583 -9.146212 -4.185404 -67.191825 -31.153673 28.995169 141.317520 -56.514056 -112.754263 1.503782 -22.281474 -19.409550 10.657296 10.935345 -2.453086 36.548633 23.022371 0.665970 -88.398837 55.839789 -77.736068 9.198172 10.720972 -11.437040 
-105.231606 67.555939 87.588669 -87.399554 -5.713361 92.755850 17.674523 10.080479 -15.257661 -4.974806 10.980557 28.959967 -1.741086 3.797472 -18.313728 nan nan nan -27.760125 -13.511964 -29.019985 0.348327 -11.538124 40.817229 8.961049 5.731538 -11.119971 nan nan nan 4.256789 -1.769653 12.449864 5.251511 -3.946961 9.389107 0.003653 0.953973 -3.175313 3.722519 3.741647 21.612042 1.669418 -1.425677 13.228258 -13.705562 -8.486150 -4.072625 -67.446747 -32.108612 28.970790 141.688596 -56.424956 -112.928626 1.435331 -22.254858 -19.075139 12.413456 10.447715 -2.211999 38.180258 23.142793 1.620628 -96.170606 56.691988 -84.127523 9.249911 11.247558 -10.613701 
-105.462372 68.110542 87.494675 -87.185054 -5.851280 92.810851 17.748122 10.022990 -14.794091 -5.070396 10.882638 28.708369 -1.277443 4.019740 -18.558686 nan nan nan -27.619507 -13.832350 -28.954741 0.389469 -11.676809 41.155953 8.483505 5.792137 -12.051926 nan nan nan 3.043432 -1.889489 12.154145 5.461238 -4.656919 9.697009 0.069866 0.637518 -3.110253 4.024435 3.850478 21.361230 1.959942 -1.453408 13.994515 -13.483685 -7.760472 -3.853571 -67.395663 -33.309289 28.886146 142.062845 -56.691094 -112.913120 1.688394 -22.128748 -18.840367 13.798735 9.499912 -2.280966 40.216416 23.251981 2.714474 -103.769537 57.210320 -90.386938 8.876089 11.245598 -10.297625 
-105.644119 68.657196 87.414680 -86.983131 -6.022211 92.867818 17.790336 9.977671 -14.376599 -5.198804 10.880547 28.351204 -1.114935 4.352563 -18.568151 nan nan nan -27.448188 -14.183149 -28.819447 0.388261 -11.976392 41.297816 7.740026 5.664280 -13.225836 nan nan nan 1.971528 -2.074317 12.110721 5.533855 -5.203009 9.409775 0.060861 0.393723 -2.796717 4.292515 3.822641 21.077594 2.154031 -1.395418 15.042688 -13.380384 -7.128776 -3.497533 -66.947390 -34.499150 28.653632 142.704832 -56.910985 -112.942951 2.311501 -21.891379 -18.997956 14.955814 8.360223 -2.444414 42.321805 23.311383 3.744322 -111.214615 57.381228 -96.350202 8.015409 10.795170 -10.128153 
-105.809441 69.130371 87.378609 -87.282619 -5.926455 92.867749 18.108635 10.312020 -13.609970 -5.340338 10.987125 27.784719 -1.261366 4.607180 -18.463150 nan nan nan -26.887714 -14.161707 -28.777024 0.411270 -12.321528 41.247504 7.229375 5.301817 -14.380118 nan nan nan 1.432051 -2.141931 12.396168 5.445716 -5.342465 8.685290 -0.041232 0.296155 -2.296211 4.662375 3.936840 20.952122 2.172247 -1.542564 16.008360 -13.171882 -6.640293 -3.184824 -67.005175 -35.676654 28.424571 142.950433 -57.166424 -112.916077 1.777142 -21.256144 -19.065164 15.709659 7.448005 -2.514131 44.220027 23.091831 4.179811 -118.411269 57.202857 -102.081757 7.386389 10.757932 -10.072949 
-105.994514 69.596573 87.340256 -87.765925 -5.786327 92.943559 18.518663 10.662834 -12.851825 -5.446145 11.356942 27.159450 -1.254386 4.711629 -18.334652 nan nan nan -26.316353 -14.075367 -28.861691 0.296466 -13.102953 41.330084 6.937610 5.257126 -15.327626 nan nan nan 0.809056 -2.082714 12.397659 5.432641 -5.388822 8.309693 -0.044626 0.295801 -1.990117 5.098479 4.303392 21.125580 2.258208 -1.968358 16.591604 -12.943337 -6.402923 -2.812424 -67.165353 -36.380909 28.217285 143.078555 -57.182246 -112.812606 1.116780 -21.653997 -18.661070 16.524425 7.079526 -2.297041 45.706414 22.591465 4.341969 -124.475569 55.855358 -106.782347 7.745618 11.186309 -9.492016 
-106.178543 69.938377 87.321564 -88.382178 -5.632844 92.979066 18.790831 10.973198 -12.045962 -5.367123 11.700685 26.459457 -1.185844 4.933936 -18.299554 nan nan nan -25.832331 -13.970838 -28.927078 0.340402 -13.609321 41.298095 6.572271 5.315677 -15.806036 nan nan nan 0.319463 -2.069287 12.414715 5.401403 -5.374440 7.895166 -0.078333 0.404468 -1.536736 5.381954 4.667305 21.273018 2.472076 -2.393961 16.952241 -12.547432 -6.416687 -2.426245 -67.391510 -37.081475 28.006150 143.152297 -57.068205 -112.869432 0.959600 -21.569383 -18.192259 17.140409 6.804614 -1.986411 46.663216 22.267341 4.183314 -129.737754 54.515505 -111.618076 7.565633 11.550806 -8.878712 
-106.407166 70.229233 87.330482 -89.088578 -5.368835 92.854457 19.125299 11.429443 -10.973644 -5.287514 11.830652 25.540516 -1.038265 5.202154 -18.364703 nan nan nan -25.261714 -13.705478 -28.783492 0.488982 -13.694990 41.064111 6.236253 5.321413 -16.136067 nan nan nan 0.068150 -2.139282 12.544879 5.311043 -5.275429 7.542281 -0.162680 0.497846 -1.081370 5.524751 4.976164 21.566719 2.689426 -2.618068 17.078170 -11.957804 -6.449453 -2.219348 -67.815158 -37.473371 27.809475 143.290633 -56.969059 -112.757911 1.974125 -21.208710 -18.320423 16.970554 6.396935 -1.743194 47.499347 21.992196 4.018974 -134.469706 53.941138 -116.229060 5.274954 12.252677 -9.192457 
